{
	"asset":{
		"version":"2.0",
		"generator":"Created using the official Cinema 4D glTF Exporter 1.000x284978"
	},
	"scenes":[{
		"nodes":[0]
	}],
	"nodes":[{
		"name":"Null.1",
		"translation":[0.0,
		0.0,
		0.0],
		"rotation":[0.0,
		0.0,
		0.0,
		-1.0],
		"scale":[1.0,
		1.0,
		1.0],
		"children":[1,
		2,
		3,
		4,
		5,
		6,
		7,
		8,
		9]
	},
	{
		"name":"Extrude.9",
		"translation":[-14358.2568359375,
		23813.55078125,
		20746.6015625],
		"rotation":[0.0,
		0.0,
		0.0,
		-1.0],
		"scale":[1.0,
		1.0,
		1.0],
		"mesh":0
	},
	{
		"name":"Extrude.8",
		"translation":[3664.451171875,
		-852.6135864257813,
		-10498.4287109375],
		"rotation":[0.0,
		0.0,
		0.0,
		-1.0],
		"scale":[1.0,
		1.0,
		1.0],
		"mesh":1
	},
	{
		"name":"Extrude.7",
		"translation":[9731.552734375,
		-26798.6015625,
		30849.013671875],
		"rotation":[0.0,
		0.0,
		0.0,
		-1.0],
		"scale":[1.0,
		1.0,
		1.0],
		"mesh":2
	},
	{
		"name":"Extrude.6",
		"translation":[-6284.49462890625,
		890.2816772460938,
		-2579.397216796875],
		"rotation":[0.0,
		0.0,
		0.0,
		-1.0],
		"scale":[1.0,
		1.0,
		1.0],
		"mesh":3
	},
	{
		"name":"Extrude.5",
		"translation":[18158.181640625,
		-30143.919921875,
		-4158.568359375],
		"rotation":[0.0,
		0.0,
		0.0,
		-1.0],
		"scale":[1.0,
		1.0,
		1.0],
		"mesh":4
	},
	{
		"name":"Extrude.4",
		"translation":[11378.431640625,
		4187.6025390625,
		-4213.02685546875],
		"rotation":[0.0,
		0.0,
		0.0,
		-1.0],
		"scale":[1.0,
		1.0,
		1.0],
		"mesh":5
	},
	{
		"name":"Extrude.3",
		"translation":[-17321.44921875,
		23710.935546875,
		15281.26953125],
		"rotation":[0.0,
		0.0,
		0.0,
		-1.0],
		"scale":[1.0,
		1.0,
		1.0],
		"mesh":6
	},
	{
		"name":"Extrude.2",
		"translation":[-13148.189453125,
		26295.17578125,
		-11662.5458984375],
		"rotation":[0.0,
		0.0,
		0.0,
		-1.0],
		"scale":[1.0,
		1.0,
		1.0],
		"mesh":7
	},
	{
		"name":"Extrude",
		"translation":[9800.9443359375,
		-21102.4140625,
		-33764.91796875],
		"rotation":[0.0,
		0.0,
		0.0,
		-1.0],
		"scale":[1.0,
		1.0,
		1.0],
		"mesh":8
	}],
	"meshes":[{
		"name":"Extrude.9",
		"primitives":[{
			"attributes":{
				"POSITION":1,
				"NORMAL":2,
				"TEXCOORD_0":3
			},
			"indices":0,
			"material":0
		}]
	},
	{
		"name":"Extrude.8",
		"primitives":[{
			"attributes":{
				"POSITION":9,
				"NORMAL":10,
				"TEXCOORD_0":11
			},
			"indices":8,
			"material":0
		}]
	},
	{
		"name":"Extrude.7",
		"primitives":[{
			"attributes":{
				"POSITION":13,
				"NORMAL":14,
				"TEXCOORD_0":15
			},
			"indices":12,
			"material":0
		}]
	},
	{
		"name":"Extrude.6",
		"primitives":[{
			"attributes":{
				"POSITION":19,
				"NORMAL":20,
				"TEXCOORD_0":21
			},
			"indices":18,
			"material":0
		}]
	},
	{
		"name":"Extrude.5",
		"primitives":[{
			"attributes":{
				"POSITION":25,
				"NORMAL":26,
				"TEXCOORD_0":27
			},
			"indices":24,
			"material":0
		}]
	},
	{
		"name":"Extrude.4",
		"primitives":[{
			"attributes":{
				"POSITION":29,
				"NORMAL":30,
				"TEXCOORD_0":31
			},
			"indices":28,
			"material":0
		}]
	},
	{
		"name":"Extrude.3",
		"primitives":[{
			"attributes":{
				"POSITION":35,
				"NORMAL":36,
				"TEXCOORD_0":37
			},
			"indices":34,
			"material":0
		}]
	},
	{
		"name":"Extrude.2",
		"primitives":[{
			"attributes":{
				"POSITION":39,
				"NORMAL":40,
				"TEXCOORD_0":41
			},
			"indices":38,
			"material":0
		}]
	},
	{
		"name":"Extrude",
		"primitives":[{
			"attributes":{
				"POSITION":43,
				"NORMAL":44,
				"TEXCOORD_0":45
			},
			"indices":42,
			"material":0
		}]
	}],
	"accessors":[{
		"type":"SCALAR",
		"bufferView":0,
		"componentType":5123,
		"count":852,
		"byteOffset":0,
		"min":[0],
		"max":[303]
	},
	{
		"type":"VEC3",
		"bufferView":1,
		"componentType":5126,
		"count":304,
		"byteOffset":0,
		"min":[-1335.7655029296876,
		-18634.33984375,
		-500.0],
		"max":[14846.77734375,
		4227.90625,
		500.0]
	},
	{
		"type":"VEC3",
		"bufferView":1,
		"componentType":5126,
		"count":304,
		"byteOffset":12,
		"min":[-0.9999691247940064,
		-0.9999690651893616,
		-1.0],
		"max":[0.9999690651893616,
		0.9999691247940064,
		1.0]
	},
	{
		"type":"VEC2",
		"bufferView":1,
		"componentType":5126,
		"count":304,
		"byteOffset":24,
		"min":[0.0,
		0.0],
		"max":[1.0,
		1.0]
	},
	{
		"type":"SCALAR",
		"bufferView":2,
		"componentType":5126,
		"count":531,
		"byteOffset":0,
		"min":[0.0],
		"max":[17.66666603088379]
	},
	{
		"type":"VEC3",
		"bufferView":2,
		"componentType":5126,
		"count":531,
		"byteOffset":2124,
		"min":[-15982.6103515625,
		23813.55078125,
		20746.6015625],
		"max":[-12733.9033203125,
		23813.55078125,
		20746.6015625]
	},
	{
		"type":"SCALAR",
		"bufferView":3,
		"componentType":5126,
		"count":531,
		"byteOffset":0,
		"min":[0.0],
		"max":[17.66666603088379]
	},
	{
		"type":"VEC4",
		"bufferView":3,
		"componentType":5126,
		"count":531,
		"byteOffset":2124,
		"min":[0.0,
		0.0,
		0.0,
		-1.0],
		"max":[0.0,
		0.0,
		0.9999591708183289,
		0.9952694773674011]
	},
	{
		"type":"SCALAR",
		"bufferView":4,
		"componentType":5123,
		"count":852,
		"byteOffset":0,
		"min":[0],
		"max":[303]
	},
	{
		"type":"VEC3",
		"bufferView":5,
		"componentType":5126,
		"count":304,
		"byteOffset":0,
		"min":[-5685.435546875,
		-8996.6884765625,
		-10000.0],
		"max":[5685.435546875,
		8996.6884765625,
		10000.0]
	},
	{
		"type":"VEC3",
		"bufferView":5,
		"componentType":5126,
		"count":304,
		"byteOffset":12,
		"min":[-0.9999991059303284,
		-0.9999991059303284,
		-1.0],
		"max":[0.9999991059303284,
		0.9999991059303284,
		1.0]
	},
	{
		"type":"VEC2",
		"bufferView":5,
		"componentType":5126,
		"count":304,
		"byteOffset":24,
		"min":[0.0,
		0.0],
		"max":[1.0,
		1.0]
	},
	{
		"type":"SCALAR",
		"bufferView":6,
		"componentType":5123,
		"count":852,
		"byteOffset":0,
		"min":[0],
		"max":[303]
	},
	{
		"type":"VEC3",
		"bufferView":7,
		"componentType":5126,
		"count":304,
		"byteOffset":0,
		"min":[-11506.14453125,
		-10131.62109375,
		-1000.0],
		"max":[11506.14453125,
		10131.62109375,
		1000.0]
	},
	{
		"type":"VEC3",
		"bufferView":7,
		"componentType":5126,
		"count":304,
		"byteOffset":12,
		"min":[-0.9999955296516419,
		-0.9999954104423523,
		-1.0],
		"max":[0.9999955892562866,
		0.9999954104423523,
		1.0]
	},
	{
		"type":"VEC2",
		"bufferView":7,
		"componentType":5126,
		"count":304,
		"byteOffset":24,
		"min":[0.0,
		0.0],
		"max":[1.0,
		1.0]
	},
	{
		"type":"SCALAR",
		"bufferView":8,
		"componentType":5126,
		"count":531,
		"byteOffset":0,
		"min":[0.0],
		"max":[17.66666603088379]
	},
	{
		"type":"VEC4",
		"bufferView":8,
		"componentType":5126,
		"count":531,
		"byteOffset":2124,
		"min":[0.0,
		0.0,
		0.0,
		-1.0],
		"max":[0.0,
		0.0,
		1.0,
		1.0]
	},
	{
		"type":"SCALAR",
		"bufferView":9,
		"componentType":5123,
		"count":840,
		"byteOffset":0,
		"min":[0],
		"max":[297]
	},
	{
		"type":"VEC3",
		"bufferView":10,
		"componentType":5126,
		"count":298,
		"byteOffset":0,
		"min":[-12120.7666015625,
		-34789.37109375,
		-2500.0],
		"max":[1603.3829345703126,
		2456.37939453125,
		2500.0]
	},
	{
		"type":"VEC3",
		"bufferView":10,
		"componentType":5126,
		"count":298,
		"byteOffset":12,
		"min":[-0.999709963798523,
		-0.999709963798523,
		-1.0],
		"max":[0.9997100234031677,
		0.9997100234031677,
		1.0]
	},
	{
		"type":"VEC2",
		"bufferView":10,
		"componentType":5126,
		"count":298,
		"byteOffset":24,
		"min":[0.0,
		0.0],
		"max":[1.0,
		1.0]
	},
	{
		"type":"SCALAR",
		"bufferView":11,
		"componentType":5126,
		"count":531,
		"byteOffset":0,
		"min":[0.0],
		"max":[17.66666603088379]
	},
	{
		"type":"VEC4",
		"bufferView":11,
		"componentType":5126,
		"count":531,
		"byteOffset":2124,
		"min":[0.0,
		0.0,
		0.0,
		-1.0],
		"max":[0.0,
		0.0,
		0.838670551776886,
		0.9999771118164063]
	},
	{
		"type":"SCALAR",
		"bufferView":12,
		"componentType":5123,
		"count":840,
		"byteOffset":0,
		"min":[0],
		"max":[297]
	},
	{
		"type":"VEC3",
		"bufferView":13,
		"componentType":5126,
		"count":298,
		"byteOffset":0,
		"min":[-6758.05712890625,
		-7469.35205078125,
		-20000.0],
		"max":[6758.05712890625,
		7469.35205078125,
		20000.0]
	},
	{
		"type":"VEC3",
		"bufferView":13,
		"componentType":5126,
		"count":298,
		"byteOffset":12,
		"min":[-0.9999915361404419,
		-0.9999915361404419,
		-1.0],
		"max":[0.9999915361404419,
		0.9999915361404419,
		1.0]
	},
	{
		"type":"VEC2",
		"bufferView":13,
		"componentType":5126,
		"count":298,
		"byteOffset":24,
		"min":[0.0,
		0.0],
		"max":[1.0,
		1.0]
	},
	{
		"type":"SCALAR",
		"bufferView":14,
		"componentType":5123,
		"count":840,
		"byteOffset":0,
		"min":[0],
		"max":[297]
	},
	{
		"type":"VEC3",
		"bufferView":15,
		"componentType":5126,
		"count":298,
		"byteOffset":0,
		"min":[-6734.63818359375,
		-144.4246826171875,
		-2000.0],
		"max":[7172.6943359375,
		21289.24609375,
		2000.0]
	},
	{
		"type":"VEC3",
		"bufferView":15,
		"componentType":5126,
		"count":298,
		"byteOffset":12,
		"min":[-0.9999889731407166,
		-0.9999889731407166,
		-1.0],
		"max":[0.9999889731407166,
		0.9999889731407166,
		1.0]
	},
	{
		"type":"VEC2",
		"bufferView":15,
		"componentType":5126,
		"count":298,
		"byteOffset":24,
		"min":[0.0,
		0.0],
		"max":[1.0,
		1.0]
	},
	{
		"type":"SCALAR",
		"bufferView":16,
		"componentType":5126,
		"count":531,
		"byteOffset":0,
		"min":[0.0],
		"max":[17.66666603088379]
	},
	{
		"type":"VEC4",
		"bufferView":16,
		"componentType":5126,
		"count":531,
		"byteOffset":2124,
		"min":[0.0,
		0.0,
		0.0,
		-1.0],
		"max":[0.0,
		0.0,
		0.9025852680206299,
		0.9999998807907105]
	},
	{
		"type":"SCALAR",
		"bufferView":17,
		"componentType":5123,
		"count":852,
		"byteOffset":0,
		"min":[0],
		"max":[303]
	},
	{
		"type":"VEC3",
		"bufferView":18,
		"componentType":5126,
		"count":304,
		"byteOffset":0,
		"min":[-4998.87890625,
		-4166.3935546875,
		-16500.0],
		"max":[4998.87890625,
		4166.3935546875,
		16500.0]
	},
	{
		"type":"VEC3",
		"bufferView":18,
		"componentType":5126,
		"count":304,
		"byteOffset":12,
		"min":[-0.9999906420707703,
		-0.9999906420707703,
		-1.0],
		"max":[0.9999906420707703,
		0.9999906420707703,
		1.0]
	},
	{
		"type":"VEC2",
		"bufferView":18,
		"componentType":5126,
		"count":304,
		"byteOffset":24,
		"min":[0.0,
		0.0],
		"max":[1.0,
		1.0]
	},
	{
		"type":"SCALAR",
		"bufferView":19,
		"componentType":5123,
		"count":852,
		"byteOffset":0,
		"min":[0],
		"max":[303]
	},
	{
		"type":"VEC3",
		"bufferView":20,
		"componentType":5126,
		"count":304,
		"byteOffset":0,
		"min":[-5410.99755859375,
		-4723.833984375,
		-4000.0],
		"max":[5410.99755859375,
		4723.833984375,
		4000.0]
	},
	{
		"type":"VEC3",
		"bufferView":20,
		"componentType":5126,
		"count":304,
		"byteOffset":12,
		"min":[-0.9999967813491821,
		-0.9999967813491821,
		-1.0],
		"max":[0.9999967813491821,
		0.9999967813491821,
		1.0]
	},
	{
		"type":"VEC2",
		"bufferView":20,
		"componentType":5126,
		"count":304,
		"byteOffset":24,
		"min":[0.0,
		0.0],
		"max":[1.0,
		1.0]
	},
	{
		"type":"SCALAR",
		"bufferView":21,
		"componentType":5123,
		"count":852,
		"byteOffset":0,
		"min":[0],
		"max":[303]
	},
	{
		"type":"VEC3",
		"bufferView":22,
		"componentType":5126,
		"count":304,
		"byteOffset":0,
		"min":[-9151.798828125,
		-9151.798828125,
		-3000.0],
		"max":[9151.798828125,
		9151.798828125,
		3000.0]
	},
	{
		"type":"VEC3",
		"bufferView":22,
		"componentType":5126,
		"count":304,
		"byteOffset":12,
		"min":[-0.9998834729194641,
		-0.9998834729194641,
		-1.0],
		"max":[0.9998834729194641,
		0.9998834729194641,
		1.0]
	},
	{
		"type":"VEC2",
		"bufferView":22,
		"componentType":5126,
		"count":304,
		"byteOffset":24,
		"min":[0.0,
		0.0],
		"max":[1.0,
		1.0]
	}],
	"bufferViews":[{
		"byteOffset":0,
		"buffer":0,
		"byteLength":1704,
		"target":34963
	},
	{
		"byteOffset":1704,
		"buffer":0,
		"byteLength":9728,
		"target":34962,
		"byteStride":32
	},
	{
		"byteOffset":0,
		"buffer":1,
		"byteLength":8496
	},
	{
		"byteOffset":8496,
		"buffer":1,
		"byteLength":10620
	},
	{
		"byteOffset":0,
		"buffer":2,
		"byteLength":1704,
		"target":34963
	},
	{
		"byteOffset":1704,
		"buffer":2,
		"byteLength":9728,
		"target":34962,
		"byteStride":32
	},
	{
		"byteOffset":0,
		"buffer":3,
		"byteLength":1704,
		"target":34963
	},
	{
		"byteOffset":1704,
		"buffer":3,
		"byteLength":9728,
		"target":34962,
		"byteStride":32
	},
	{
		"byteOffset":0,
		"buffer":4,
		"byteLength":10620
	},
	{
		"byteOffset":0,
		"buffer":5,
		"byteLength":1680,
		"target":34963
	},
	{
		"byteOffset":1680,
		"buffer":5,
		"byteLength":9536,
		"target":34962,
		"byteStride":32
	},
	{
		"byteOffset":0,
		"buffer":6,
		"byteLength":10620
	},
	{
		"byteOffset":0,
		"buffer":7,
		"byteLength":1680,
		"target":34963
	},
	{
		"byteOffset":1680,
		"buffer":7,
		"byteLength":9536,
		"target":34962,
		"byteStride":32
	},
	{
		"byteOffset":0,
		"buffer":8,
		"byteLength":1680,
		"target":34963
	},
	{
		"byteOffset":1680,
		"buffer":8,
		"byteLength":9536,
		"target":34962,
		"byteStride":32
	},
	{
		"byteOffset":0,
		"buffer":9,
		"byteLength":10620
	},
	{
		"byteOffset":0,
		"buffer":10,
		"byteLength":1704,
		"target":34963
	},
	{
		"byteOffset":1704,
		"buffer":10,
		"byteLength":9728,
		"target":34962,
		"byteStride":32
	},
	{
		"byteOffset":0,
		"buffer":11,
		"byteLength":1704,
		"target":34963
	},
	{
		"byteOffset":1704,
		"buffer":11,
		"byteLength":9728,
		"target":34962,
		"byteStride":32
	},
	{
		"byteOffset":0,
		"buffer":12,
		"byteLength":1704,
		"target":34963
	},
	{
		"byteOffset":1704,
		"buffer":12,
		"byteLength":9728,
		"target":34962,
		"byteStride":32
	}],
	"buffers":[{
		"uri":"data:application/octet-stream;base64,",
		"byteLength":11432
	},
	{
		"uri":"data:application/octet-stream;base64,",
		"byteLength":19116
	},
	{
		"uri":"data:application/octet-stream;base64,",
		"byteLength":11432
	},
	{
		"uri":"data:application/octet-stream;base64,",
		"byteLength":11432
	},
	{
		"uri":"data:application/octet-stream;base64,",
		"byteLength":10620
	},
	{
		"uri":"data:application/octet-stream;base64,",
		"byteLength":11216
	},
	{
		"uri":"data:application/octet-stream;base64,",
		"byteLength":10620
	},
	{
		"uri":"data:application/octet-stream;base64,",
		"byteLength":11216
	},
	{
		"uri":"data:application/octet-stream;base64,",
		"byteLength":11216
	},
	{
		"uri":"data:application/octet-stream;base64,",
		"byteLength":10620
	},
	{
		"uri":"data:application/octet-stream;base64,",
		"byteLength":11432
	},
	{
		"uri":"data:application/octet-stream;base64,",
		"byteLength":11432
	},
	{
		"uri":"data:application/octet-stream;base64,",
		"byteLength":11432
	}],
	"materials":[{
		"pbrMetallicRoughness":{
			"baseColorFactor":[0.8,
			0.8,
			0.8,
			1.0],
			"metallicFactor":1.0,
			"roughnessFactor":1.0
		},
		"emissiveFactor":[0.0,
		0.0,
		0.0],
		"alphaMode":"OPAQUE",
		"doubleSided":true,
		"name":"Mat"
	}],
	"animations":[{
		"channels":[{
			"sampler":0,
			"target":{
				"node":1,
				"path":"translation"
			}
		},
		{
			"sampler":1,
			"target":{
				"node":1,
				"path":"rotation"
			}
		},
		{
			"sampler":2,
			"target":{
				"node":3,
				"path":"rotation"
			}
		},
		{
			"sampler":3,
			"target":{
				"node":4,
				"path":"rotation"
			}
		},
		{
			"sampler":4,
			"target":{
				"node":6,
				"path":"rotation"
			}
		}],
		"samplers":[{
			"input":4,
			"interpolation":"LINEAR",
			"output":5
		},
		{
			"input":6,
			"interpolation":"LINEAR",
			"output":7
		},
		{
			"input":16,
			"interpolation":"LINEAR",
			"output":17
		},
		{
			"input":22,
			"interpolation":"LINEAR",
			"output":23
		},
		{
			"input":32,
			"interpolation":"LINEAR",
			"output":33
		}]
	}]
}