{
	"asset":{
		"version":"2.0",
		"generator":"Created using the official Cinema 4D glTF Exporter 1.000x284978"
	},
	"scenes":[{
		"nodes":[0,
		1,
		2,
		3,
		4,
		5,
		6,
		7,
		8]
	}],
	"nodes":[{
		"name":"Capsule.8",
		"translation":[-4.440892098500626e-15,
		1574.6090087890626,
		-574.1344604492188],
		"mesh":0,
		"rotation":[0.0963473916053772,
		0.0,
		0.0,
		-0.995347797870636],
		"scale":[1.0,
		1.0,
		1.0]
	},
	{
		"name":"Capsule.7",
		"translation":[0.0,
		1932.218017578125,
		-254.22012329101563],
		"mesh":1,
		"rotation":[0.8180439472198486,
		-1.4872618078197283e-17,
		1.4872618078197283e-17,
		-0.5751556754112244],
		"scale":[1.0,
		1.0,
		1.0]
	},
	{
		"name":"Capsule.6",
		"translation":[-53.414424896240237,
		2594.143798828125,
		205.1734161376953],
		"mesh":2,
		"rotation":[0.0,
		0.0,
		0.0,
		-1.0],
		"scale":[1.0,
		1.0,
		1.0]
	},
	{
		"name":"Capsule.5",
		"translation":[0.0,
		3109.815185546875,
		52.175594329833987],
		"mesh":3,
		"rotation":[0.17374062538146974,
		0.0,
		0.0,
		-0.9847914576530457],
		"scale":[1.0,
		1.0,
		1.0]
	},
	{
		"name":"Capsule.4",
		"translation":[0.0,
		3016.89892578125,
		-328.1478576660156],
		"mesh":4,
		"rotation":[0.0,
		0.0,
		0.0,
		-1.0],
		"scale":[1.0,
		1.0,
		1.0]
	},
	{
		"name":"Capsule.3",
		"translation":[0.0,
		3706.41357421875,
		-318.558349609375],
		"mesh":5,
		"rotation":[-0.14762432873249055,
		0.0,
		0.0,
		-0.9890435338020325],
		"scale":[1.0,
		1.0,
		1.0]
	},
	{
		"name":"Capsule.2",
		"translation":[0.0,
		2422.304443359375,
		-268.4811096191406],
		"mesh":6,
		"rotation":[0.0,
		0.0,
		0.0,
		-1.0],
		"scale":[1.0,
		1.0,
		1.0]
	},
	{
		"name":"Capsule.1",
		"translation":[0.0,
		1914.74658203125,
		347.4923400878906],
		"mesh":7,
		"rotation":[0.4037039279937744,
		0.0,
		0.0,
		-0.9148896932601929],
		"scale":[1.0,
		1.0,
		1.0]
	},
	{
		"name":"Capsule",
		"translation":[0.0,
		3719.301025390625,
		-38.94911575317383],
		"mesh":8,
		"rotation":[0.0,
		0.0,
		0.0,
		-1.0],
		"scale":[1.0,
		1.0,
		1.0]
	}],
	"meshes":[{
		"name":"Capsule.8",
		"primitives":[{
			"attributes":{
				"POSITION":1,
				"NORMAL":2,
				"TEXCOORD_0":3
			},
			"indices":0,
			"material":0
		}]
	},
	{
		"name":"Capsule.7",
		"primitives":[{
			"attributes":{
				"POSITION":9,
				"NORMAL":10,
				"TEXCOORD_0":11
			},
			"indices":8,
			"material":0
		}]
	},
	{
		"name":"Capsule.6",
		"primitives":[{
			"attributes":{
				"POSITION":13,
				"NORMAL":14,
				"TEXCOORD_0":15
			},
			"indices":12,
			"material":0
		}]
	},
	{
		"name":"Capsule.5",
		"primitives":[{
			"attributes":{
				"POSITION":17,
				"NORMAL":18,
				"TEXCOORD_0":19
			},
			"indices":16,
			"material":0
		}]
	},
	{
		"name":"Capsule.4",
		"primitives":[{
			"attributes":{
				"POSITION":21,
				"NORMAL":22,
				"TEXCOORD_0":23
			},
			"indices":20,
			"material":0
		}]
	},
	{
		"name":"Capsule.3",
		"primitives":[{
			"attributes":{
				"POSITION":25,
				"NORMAL":26,
				"TEXCOORD_0":27
			},
			"indices":24,
			"material":0
		}]
	},
	{
		"name":"Capsule.2",
		"primitives":[{
			"attributes":{
				"POSITION":29,
				"NORMAL":30,
				"TEXCOORD_0":31
			},
			"indices":28,
			"material":0
		}]
	},
	{
		"name":"Capsule.1",
		"primitives":[{
			"attributes":{
				"POSITION":33,
				"NORMAL":34,
				"TEXCOORD_0":35
			},
			"indices":32,
			"material":0
		}]
	},
	{
		"name":"Capsule",
		"primitives":[{
			"attributes":{
				"POSITION":41,
				"NORMAL":42,
				"TEXCOORD_0":43
			},
			"indices":40,
			"material":0
		}]
	}],
	"materials":[{
		"alphaMode":"OPAQUE",
		"pbrMetallicRoughness":{
			"baseColorFactor":[0.29,
			0.29,
			0.29,
			1.0],
			"metallicFactor":0.0,
			"roughnessFactor":0.5
		},
		"emissiveFactor":[0.0,
		0.0,
		0.0],
		"doubleSided":true,
		"name":"Mat"
	}],
	"accessors":[{
		"bufferView":0,
		"type":"SCALAR",
		"byteOffset":0,
		"componentType":5123,
		"count":1056,
		"min":[0],
		"max":[218]
	},
	{
		"bufferView":1,
		"type":"VEC3",
		"byteOffset":0,
		"componentType":5126,
		"count":219,
		"min":[-207.0379638671875,
		-627.4742431640625,
		-207.0379638671875],
		"max":[207.0379638671875,
		627.4742431640625,
		207.0379638671875]
	},
	{
		"bufferView":1,
		"type":"VEC3",
		"byteOffset":12,
		"componentType":5126,
		"count":219,
		"min":[-1.0,
		-1.0,
		-1.0],
		"max":[1.0,
		1.0,
		1.0]
	},
	{
		"bufferView":1,
		"type":"VEC2",
		"byteOffset":24,
		"componentType":5126,
		"count":219,
		"min":[0.0,
		0.0],
		"max":[1.0,
		1.0]
	},
	{
		"bufferView":2,
		"type":"SCALAR",
		"byteOffset":0,
		"componentType":5126,
		"count":361,
		"min":[0.0],
		"max":[12.0]
	},
	{
		"bufferView":2,
		"type":"VEC3",
		"byteOffset":1444,
		"componentType":5126,
		"count":361,
		"min":[-4.440892098500626e-15,
		388.9952697753906,
		-3993.884521484375],
		"max":[-4.440892098500626e-15,
		3373.84716796875,
		169.46890258789063]
	},
	{
		"bufferView":3,
		"type":"SCALAR",
		"byteOffset":0,
		"componentType":5126,
		"count":361,
		"min":[0.0],
		"max":[12.0]
	},
	{
		"bufferView":3,
		"type":"VEC4",
		"byteOffset":1444,
		"componentType":5126,
		"count":361,
		"min":[-0.7027150392532349,
		-8.658467401529004e-17,
		0.0,
		-0.9988179206848145],
		"max":[0.9999983906745911,
		0.0,
		8.658467401529004e-17,
		0.6957831382751465]
	},
	{
		"bufferView":4,
		"type":"SCALAR",
		"byteOffset":0,
		"componentType":5123,
		"count":1056,
		"min":[0],
		"max":[218]
	},
	{
		"bufferView":5,
		"type":"VEC3",
		"byteOffset":0,
		"componentType":5126,
		"count":219,
		"min":[-151.7567901611328,
		-375.0,
		-151.7567901611328],
		"max":[151.7567901611328,
		375.0,
		151.7567901611328]
	},
	{
		"bufferView":5,
		"type":"VEC3",
		"byteOffset":12,
		"componentType":5126,
		"count":219,
		"min":[-1.0,
		-1.0,
		-1.0],
		"max":[1.0,
		1.0,
		1.0]
	},
	{
		"bufferView":5,
		"type":"VEC2",
		"byteOffset":24,
		"componentType":5126,
		"count":219,
		"min":[0.0,
		0.0],
		"max":[1.0,
		1.0]
	},
	{
		"bufferView":6,
		"type":"SCALAR",
		"byteOffset":0,
		"componentType":5123,
		"count":1056,
		"min":[0],
		"max":[218]
	},
	{
		"bufferView":7,
		"type":"VEC3",
		"byteOffset":0,
		"componentType":5126,
		"count":219,
		"min":[-197.67684936523438,
		-363.9720153808594,
		-197.67684936523438],
		"max":[197.67684936523438,
		363.9720153808594,
		197.67684936523438]
	},
	{
		"bufferView":7,
		"type":"VEC3",
		"byteOffset":12,
		"componentType":5126,
		"count":219,
		"min":[-1.0,
		-1.0,
		-1.0],
		"max":[1.0,
		1.0,
		1.0]
	},
	{
		"bufferView":7,
		"type":"VEC2",
		"byteOffset":24,
		"componentType":5126,
		"count":219,
		"min":[0.0,
		0.0],
		"max":[1.0,
		1.0]
	},
	{
		"bufferView":8,
		"type":"SCALAR",
		"byteOffset":0,
		"componentType":5123,
		"count":1056,
		"min":[0],
		"max":[218]
	},
	{
		"bufferView":9,
		"type":"VEC3",
		"byteOffset":0,
		"componentType":5126,
		"count":219,
		"min":[-169.15650939941407,
		-301.7841491699219,
		-169.15650939941407],
		"max":[169.15650939941407,
		301.7841491699219,
		169.15650939941407]
	},
	{
		"bufferView":9,
		"type":"VEC3",
		"byteOffset":12,
		"componentType":5126,
		"count":219,
		"min":[-1.0,
		-1.0,
		-1.0],
		"max":[1.0,
		1.0,
		1.0]
	},
	{
		"bufferView":9,
		"type":"VEC2",
		"byteOffset":24,
		"componentType":5126,
		"count":219,
		"min":[0.0,
		0.0],
		"max":[1.0,
		1.0]
	},
	{
		"bufferView":10,
		"type":"SCALAR",
		"byteOffset":0,
		"componentType":5123,
		"count":1056,
		"min":[0],
		"max":[218]
	},
	{
		"bufferView":11,
		"type":"VEC3",
		"byteOffset":0,
		"componentType":5126,
		"count":219,
		"min":[-226.2814178466797,
		-350.582763671875,
		-226.2814178466797],
		"max":[226.2814178466797,
		350.582763671875,
		226.2814178466797]
	},
	{
		"bufferView":11,
		"type":"VEC3",
		"byteOffset":12,
		"componentType":5126,
		"count":219,
		"min":[-1.0,
		-1.0,
		-1.0],
		"max":[1.0,
		1.0,
		1.0]
	},
	{
		"bufferView":11,
		"type":"VEC2",
		"byteOffset":24,
		"componentType":5126,
		"count":219,
		"min":[0.0,
		0.0],
		"max":[1.0,
		1.0]
	},
	{
		"bufferView":12,
		"type":"SCALAR",
		"byteOffset":0,
		"componentType":5123,
		"count":1056,
		"min":[0],
		"max":[218]
	},
	{
		"bufferView":13,
		"type":"VEC3",
		"byteOffset":0,
		"componentType":5126,
		"count":219,
		"min":[-180.72857666015626,
		-301.7841491699219,
		-180.72857666015626],
		"max":[180.72857666015626,
		301.7841491699219,
		180.72857666015626]
	},
	{
		"bufferView":13,
		"type":"VEC3",
		"byteOffset":12,
		"componentType":5126,
		"count":219,
		"min":[-1.0,
		-1.0,
		-1.0],
		"max":[1.0,
		1.0,
		1.0]
	},
	{
		"bufferView":13,
		"type":"VEC2",
		"byteOffset":24,
		"componentType":5126,
		"count":219,
		"min":[0.0,
		0.0],
		"max":[1.0,
		1.0]
	},
	{
		"bufferView":14,
		"type":"SCALAR",
		"byteOffset":0,
		"componentType":5123,
		"count":1056,
		"min":[0],
		"max":[218]
	},
	{
		"bufferView":15,
		"type":"VEC3",
		"byteOffset":0,
		"componentType":5126,
		"count":219,
		"min":[-178.77432250976563,
		-215.78823852539063,
		-178.77432250976563],
		"max":[178.77432250976563,
		215.78823852539063,
		178.77432250976563]
	},
	{
		"bufferView":15,
		"type":"VEC3",
		"byteOffset":12,
		"componentType":5126,
		"count":219,
		"min":[-1.0,
		-1.0,
		-1.0],
		"max":[1.0,
		1.0,
		1.0]
	},
	{
		"bufferView":15,
		"type":"VEC2",
		"byteOffset":24,
		"componentType":5126,
		"count":219,
		"min":[0.0,
		0.0],
		"max":[1.0,
		1.0]
	},
	{
		"bufferView":16,
		"type":"SCALAR",
		"byteOffset":0,
		"componentType":5123,
		"count":1056,
		"min":[0],
		"max":[218]
	},
	{
		"bufferView":17,
		"type":"VEC3",
		"byteOffset":0,
		"componentType":5126,
		"count":219,
		"min":[-237.67356872558595,
		-377.5522155761719,
		-237.67356872558595],
		"max":[237.67356872558595,
		377.5522155761719,
		237.67356872558595]
	},
	{
		"bufferView":17,
		"type":"VEC3",
		"byteOffset":12,
		"componentType":5126,
		"count":219,
		"min":[-1.0,
		-1.0,
		-1.0],
		"max":[1.0,
		1.0,
		1.0]
	},
	{
		"bufferView":17,
		"type":"VEC2",
		"byteOffset":24,
		"componentType":5126,
		"count":219,
		"min":[0.0,
		0.0],
		"max":[1.0,
		1.0]
	},
	{
		"bufferView":18,
		"type":"SCALAR",
		"byteOffset":0,
		"componentType":5126,
		"count":361,
		"min":[0.0],
		"max":[12.0]
	},
	{
		"bufferView":18,
		"type":"VEC3",
		"byteOffset":1444,
		"componentType":5126,
		"count":361,
		"min":[0.0,
		554.8572387695313,
		347.4923400878906],
		"max":[2.015378713607788,
		1914.74658203125,
		3360.170166015625]
	},
	{
		"bufferView":19,
		"type":"SCALAR",
		"byteOffset":0,
		"componentType":5126,
		"count":361,
		"min":[0.0],
		"max":[12.0]
	},
	{
		"bufferView":19,
		"type":"VEC4",
		"byteOffset":1444,
		"componentType":5126,
		"count":361,
		"min":[0.16966184973716737,
		-7.900028144857093e-17,
		0.0,
		-0.9855023622512817],
		"max":[0.9999797344207764,
		0.0,
		7.900028144857093e-17,
		0.35549396276474]
	},
	{
		"bufferView":20,
		"type":"SCALAR",
		"byteOffset":0,
		"componentType":5123,
		"count":1056,
		"min":[0],
		"max":[218]
	},
	{
		"bufferView":21,
		"type":"VEC3",
		"byteOffset":0,
		"componentType":5126,
		"count":219,
		"min":[-177.02285766601563,
		-301.7841491699219,
		-177.02285766601563],
		"max":[177.02285766601563,
		301.7841491699219,
		177.02285766601563]
	},
	{
		"bufferView":21,
		"type":"VEC3",
		"byteOffset":12,
		"componentType":5126,
		"count":219,
		"min":[-1.0,
		-1.0,
		-1.0],
		"max":[1.0,
		1.0,
		1.0]
	},
	{
		"bufferView":21,
		"type":"VEC2",
		"byteOffset":24,
		"componentType":5126,
		"count":219,
		"min":[0.0,
		0.0],
		"max":[1.0,
		1.0]
	}],
	"bufferViews":[{
		"buffer":0,
		"byteOffset":0,
		"byteLength":2112,
		"target":34963
	},
	{
		"buffer":0,
		"byteOffset":2112,
		"byteLength":7008,
		"target":34962,
		"byteStride":32
	},
	{
		"buffer":1,
		"byteOffset":0,
		"byteLength":5776
	},
	{
		"buffer":1,
		"byteOffset":5776,
		"byteLength":7220
	},
	{
		"buffer":2,
		"byteOffset":0,
		"byteLength":2112,
		"target":34963
	},
	{
		"buffer":2,
		"byteOffset":2112,
		"byteLength":7008,
		"target":34962,
		"byteStride":32
	},
	{
		"buffer":3,
		"byteOffset":0,
		"byteLength":2112,
		"target":34963
	},
	{
		"buffer":3,
		"byteOffset":2112,
		"byteLength":7008,
		"target":34962,
		"byteStride":32
	},
	{
		"buffer":4,
		"byteOffset":0,
		"byteLength":2112,
		"target":34963
	},
	{
		"buffer":4,
		"byteOffset":2112,
		"byteLength":7008,
		"target":34962,
		"byteStride":32
	},
	{
		"buffer":5,
		"byteOffset":0,
		"byteLength":2112,
		"target":34963
	},
	{
		"buffer":5,
		"byteOffset":2112,
		"byteLength":7008,
		"target":34962,
		"byteStride":32
	},
	{
		"buffer":6,
		"byteOffset":0,
		"byteLength":2112,
		"target":34963
	},
	{
		"buffer":6,
		"byteOffset":2112,
		"byteLength":7008,
		"target":34962,
		"byteStride":32
	},
	{
		"buffer":7,
		"byteOffset":0,
		"byteLength":2112,
		"target":34963
	},
	{
		"buffer":7,
		"byteOffset":2112,
		"byteLength":7008,
		"target":34962,
		"byteStride":32
	},
	{
		"buffer":8,
		"byteOffset":0,
		"byteLength":2112,
		"target":34963
	},
	{
		"buffer":8,
		"byteOffset":2112,
		"byteLength":7008,
		"target":34962,
		"byteStride":32
	},
	{
		"buffer":9,
		"byteOffset":0,
		"byteLength":5776
	},
	{
		"buffer":9,
		"byteOffset":5776,
		"byteLength":7220
	},
	{
		"buffer":10,
		"byteOffset":0,
		"byteLength":2112,
		"target":34963
	},
	{
		"buffer":10,
		"byteOffset":2112,
		"byteLength":7008,
		"target":34962,
		"byteStride":32
	}],
	"buffers":[{
		"uri":"data:application/octet-stream;base64,",
		"byteLength":9120
	},
	{
		"uri":"data:application/octet-stream;base64,",
		"byteLength":12996
	},
	{
		"uri":"data:application/octet-stream;base64,",
		"byteLength":9120
	},
	{
		"uri":"data:application/octet-stream;base64,",
		"byteLength":9120
	},
	{
		"uri":"data:application/octet-stream;base64,",
		"byteLength":9120
	},
	{
		"uri":"data:application/octet-stream;base64,",
		"byteLength":9120
	},
	{
		"uri":"data:application/octet-stream;base64,",
		"byteLength":9120
	},
	{
		"uri":"data:application/octet-stream;base64,",
		"byteLength":9120
	},
	{
		"uri":"data:application/octet-stream;base64,",
		"byteLength":9120
	},
	{
		"uri":"data:application/octet-stream;base64,",
		"byteLength":12996
	},
	{
		"uri":"data:application/octet-stream;base64,",
		"byteLength":9120
	}],
	"animations":[{
		"samplers":[{
			"input":4,
			"interpolation":"LINEAR",
			"output":5
		},
		{
			"input":6,
			"interpolation":"LINEAR",
			"output":7
		},
		{
			"input":36,
			"interpolation":"LINEAR",
			"output":37
		},
		{
			"input":38,
			"interpolation":"LINEAR",
			"output":39
		}],
		"channels":[{
			"sampler":0,
			"target":{
				"node":0,
				"path":"translation"
			}
		},
		{
			"sampler":1,
			"target":{
				"node":0,
				"path":"rotation"
			}
		},
		{
			"sampler":2,
			"target":{
				"node":7,
				"path":"translation"
			}
		},
		{
			"sampler":3,
			"target":{
				"node":7,
				"path":"rotation"
			}
		}]
	}]
}